<svg width="1280" height="320" viewBox="0 0 1280 320" fill="none" xmlns="http://www.w3.org/2000/svg">
  <rect x="24" y="24" width="272" height="272" rx="72" fill="#F7F7F5"/>
  <rect x="36" y="36" width="248" height="248" rx="60" fill="#FCFCFB" stroke="#111111" stroke-width="12"/>
  <path d="M102 97C102 89.268 108.268 83 116 83H184L218 117V218C218 225.732 211.732 232 204 232H116C108.268 232 102 225.732 102 218V97Z" fill="white" stroke="#111111" stroke-width="12" stroke-linejoin="round"/>
  <path d="M184 83V105C184 112.732 190.268 119 198 119H218" stroke="#111111" stroke-width="12" stroke-linecap="round" stroke-linejoin="round"/>
  <path d="M128 154L154 180L128 206" stroke="#0066CC" stroke-width="16" stroke-linecap="round" stroke-linejoin="round"/>
  <path d="M172 206H194" stroke="#111111" stroke-width="16" stroke-linecap="round"/>
  <path d="M356 132H407.358C430.843 132 447.5 146.661 447.5 168.482C447.5 183.678 438.834 194.52 425.027 199.874C440.322 204.638 450.5 216.687 450.5 234.83C450.5 259.714 431.93 276 403.379 276H356V132ZM392.999 191.248C406.115 191.248 414.5 183.686 414.5 172.182C414.5 160.579 406.115 153.414 392.999 153.414H382V191.248H392.999ZM397.185 254.984C411.723 254.984 420.5 246.925 420.5 233.044C420.5 219.163 411.723 211.402 397.185 211.402H382V254.984H397.185Z" fill="#111111"/>
  <path d="M479 132H506.23L558.918 221.604L611.408 132H638.638V276H613.639V177.552L568.485 253.291H548.954L503.801 177.552V276H479V132Z" fill="#111111"/>
  <path d="M673 132H731.146C780.848 132 816 162.462 816 204C816 245.538 780.848 276 731.146 276H673V132ZM728.749 253.589C764.207 253.589 789.443 233.144 789.443 204C789.443 174.856 764.207 154.411 728.749 154.411H699.394V253.589H728.749Z" fill="#111111"/>
</svg>
