<svg width="512" height="512" viewBox="0 0 512 512" fill="none" xmlns="http://www.w3.org/2000/svg">
  <rect x="40" y="40" width="432" height="432" rx="104" fill="#FAFAF8"/>
  <path d="M168 112H284C296 112 304 115 312 123L363 174C371 182 374 190 374 202V372C374 391.882 357.882 408 338 408H168C148.118 408 132 391.882 132 372V148C132 128.118 148.118 112 168 112Z" fill="#FFFFFF" stroke="#111111" stroke-width="30" stroke-linejoin="round"/>
  <path d="M286 120V156C286 173.882 298.118 186 316 186H362" stroke="#111111" stroke-width="30" stroke-linecap="round" stroke-linejoin="round"/>
  <path d="M184 166H258" stroke="#111111" stroke-width="14" stroke-linecap="round" opacity="0.14"/>
  <path d="M184 196H232" stroke="#111111" stroke-width="14" stroke-linecap="round" opacity="0.1"/>
  <path d="M194 242L248 296L194 350" stroke="#2F6BFF" stroke-width="28" stroke-linecap="round" stroke-linejoin="round"/>
  <path d="M278 350H336" stroke="#111111" stroke-width="28" stroke-linecap="round"/>
</svg>
